<?xml version="1.0" encoding="UTF-8"?>
<svg version="1.1" xmlns="http://www.w3.org/2000/svg" width="94" height="101">
<path d="M0 0 C31.02 0 62.04 0 94 0 C94 33.33 94 66.66 94 101 C62.98 101 31.96 101 0 101 C0 67.67 0 34.34 0 0 Z " fill="#010000" transform="translate(0,0)"/>
<path d="M0 0 C6.91154775 3.85174796 11.21495657 8.91105924 14.25 16.25390625 C14.25 17.24390625 14.25 18.23390625 14.25 19.25390625 C13.64671875 19.30289063 13.0434375 19.351875 12.421875 19.40234375 C11.62265625 19.47710937 10.8234375 19.551875 10 19.62890625 C9.21109375 19.69851562 8.4221875 19.768125 7.609375 19.83984375 C5.22027465 20.14209312 5.22027465 20.14209312 3.1484375 21.3125 C0.31892062 22.71561434 -1.75657134 21.96972615 -4.75 21.25390625 C-5.41 20.92390625 -6.07 20.59390625 -6.75 20.25390625 C-8.87235807 20.13091245 -10.99911463 20.07834943 -13.125 20.06640625 C-14.83816406 20.04513672 -14.83816406 20.04513672 -16.5859375 20.0234375 C-19.64319696 20.24612677 -21.13540287 20.79745281 -23.75 22.25390625 C-26.3125 22.00390625 -26.3125 22.00390625 -29.75 21.25390625 C-31.70743684 20.89481784 -33.66584272 20.5409863 -35.625 20.19140625 C-37.33341195 19.87933633 -39.04177174 19.56698011 -40.75 19.25390625 C-39.74490378 12.75504546 -36.59737055 7.61587268 -31.52734375 3.41015625 C-21.47516921 -3.43673392 -11.3684335 -5.22875066 0 0 Z " fill="#F47015" transform="translate(57.75,29.74609375)"/>
<path d="M0 0 C7.53623188 0.75362319 7.53623188 0.75362319 10 2.0625 C13.18069831 3.55345233 16.54833695 3.458424 20 3 C20.6496875 2.67 21.299375 2.34 21.96875 2 C24.31475943 0.84504151 25.89946021 0.73218808 28.5 0.75 C29.2528125 0.74484375 30.005625 0.7396875 30.78125 0.734375 C33.24411021 1.02922446 34.81194085 1.87067915 37 3 C41.62193176 3.39857843 41.62193176 3.39857843 45.921875 1.9921875 C48.37555614 0.82069312 50.04901154 0.79555916 52.75 0.875 C53.54921875 0.89304688 54.3484375 0.91109375 55.171875 0.9296875 C55.77515625 0.95289063 56.3784375 0.97609375 57 1 C57 2.98 57 4.96 57 7 C55.9275 7.28875 54.855 7.5775 53.75 7.875 C50.22258546 8.79252255 50.22258546 8.79252255 48.07421875 10.05078125 C44.25237089 11.79976247 40.11198881 11.47032552 36 11 C34.31970006 10.02308143 32.65071396 9.02611949 31 8 C26.76934307 8.21882708 24.54170582 8.63886279 21 11 C15.15289203 11.76309714 10.89597519 11.39998277 6 8 C2.80604974 7.28598768 2.80604974 7.28598768 0 7 C0 4.69 0 2.38 0 0 Z " fill="#EF6E15" transform="translate(16,53)"/>
<path d="M0 0 C7.53623188 0.75362319 7.53623188 0.75362319 10 2.0625 C13.18069831 3.55345233 16.54833695 3.458424 20 3 C20.639375 2.67 21.27875 2.34 21.9375 2 C24.43523383 0.78897754 26.23573656 0.73314474 29 0.75 C29.845625 0.74484375 30.69125 0.7396875 31.5625 0.734375 C34.16017599 1.01745508 35.70939552 1.79837142 38 3 C42.62588702 3.39328739 42.62588702 3.39328739 46.9375 2 C50.22790776 0.40465079 53.37681681 0.87922723 57 1 C57 2.98 57 4.96 57 7 C55.9275 7.28875 54.855 7.5775 53.75 7.875 C50.22258546 8.79252255 50.22258546 8.79252255 48.07421875 10.05078125 C44.25237089 11.79976247 40.11198881 11.47032552 36 11 C34.31970006 10.02308143 32.65071396 9.02611949 31 8 C26.76934307 8.21882708 24.54170582 8.63886279 21 11 C15.15289203 11.76309714 10.89597519 11.39998277 6 8 C2.80604974 7.28598768 2.80604974 7.28598768 0 7 C0 4.69 0 2.38 0 0 Z " fill="#EF6E15" transform="translate(16,65)"/>
</svg>
